<?xml version="1.0" encoding="UTF-8"?>
<!-- Generator: Adobe Illustrator 16.0.0, SVG Export Plug-In . SVG Version: 6.00 Build 0)  -->
<!DOCTYPE svg PUBLIC "-//W3C//DTD SVG 1.1//EN" "http://www.w3.org/Graphics/SVG/1.1/DTD/svg11.dtd">
<svg version="1.1" id="圖層_1" xmlns="http://www.w3.org/2000/svg" xmlns:xlink="http://www.w3.org/1999/xlink" x="0px" y="0px" width="40px" height="40px" viewBox="0 0 40 40" enable-background="new 0 0 40 40" xml:space="preserve">
<circle fill="none" cx="20" cy="20" r="20"/>
<path fill="#FFFFFF" d="M27.114,20.15c0.854,0,1.547-0.691,1.547-1.547c0-0.854-0.692-1.547-1.547-1.547  c-0.854,0-1.547,0.693-1.547,1.547C25.567,19.459,26.261,20.15,27.114,20.15z M31.32,14.125h-4.188V9  c0-0.441-0.357-0.799-0.799-0.799H13.667c-0.441,0-0.799,0.357-0.799,0.799v5.125H8.679c-0.441,0-0.799,0.357-0.799,0.799v11.374  c0,0.441,0.357,0.799,0.799,0.799h4.189v3.902c0,0.441,0.357,0.799,0.799,0.799h12.666c0.441,0,0.799-0.357,0.799-0.799v-3.902  h4.188c0.441,0,0.799-0.357,0.799-0.799V14.924C32.119,14.482,31.762,14.125,31.32,14.125z M14.465,9.799h11.069v4.326H14.465V9.799  z M25.534,30.2H14.465v-6.762h11.069V30.2z M30.522,25.499h-3.391v-2.859c0-0.439-0.357-0.799-0.799-0.799H13.667  c-0.441,0-0.799,0.359-0.799,0.799v2.859H9.478v-9.776h21.045V25.499z M16.201,26.297h7.597c0.441,0,0.799-0.357,0.799-0.799  S24.239,24.7,23.798,24.7h-7.597c-0.441,0-0.799,0.357-0.799,0.799S15.76,26.297,16.201,26.297z M16.201,29.081h7.597  c0.441,0,0.799-0.357,0.799-0.799s-0.357-0.799-0.799-0.799h-7.597c-0.441,0-0.799,0.357-0.799,0.799S15.76,29.081,16.201,29.081z"/>
</svg>